# xmcd
#
# Track frame offsets:
#	150
#	11639
#	26477
#	43462
#	58432
#	77610
#	91787
#	106988
#	122051
#	140694
#	155140
#	170714
#
# Disc length: 2544 seconds
#
# Revision: 1
# Processed by: cddbd v1.5.2PL0 Copyright (c) Steve Scherf et al.
# Submitted via: EZCDAudioConverter 6.0.3.1
#
DISCID=a709ee0c
DTITLE=John Anderson - Bigger Hands
DYEAR=2009
DGENRE=Country
TTITLE0=How Can I be so thirsty
TTITLE1=Better New
TTITLE2=Hawaia in Hawaii
TTITLE3=The greatest Story Never told
TTITLE4=Shuttine Detroit Down
TTITLE5=Cold Coffee and Hot Beer
TTITLE6=Bar Room Country
TTITLE7=Missing Her Again
TTITLE8=Shortys Long Gone
TTITLE9=What Use to Turn me On
TTITLE10=Fade Out
TTITLE11=Bigger Hands
EXTD=
EXTT0=
EXTT1=
EXTT2=
EXTT3=
EXTT4=
EXTT5=
EXTT6=
EXTT7=
EXTT8=
EXTT9=
EXTT10=
EXTT11=
PLAYORDER=
